<svg xmlns="http://www.w3.org/2000/svg" xmlns:xlink="http://www.w3.org/1999/xlink" width="500" zoomAndPan="magnify" viewBox="0 0 375 374.999991" height="500" preserveAspectRatio="xMidYMid meet" version="1.0"><path fill="#60b404" d="M 187.761719 88.332031 C 224.503906 75.660156 246.925781 38.542969 241 0 C 204.183594 12.671875 181.613281 49.789062 187.761719 88.332031 Z M 187.761719 88.332031 " fill-opacity="1" fill-rule="evenodd"/><path fill="#f13556" d="M 223.53125 103.480469 C 261.097656 103.480469 294.992188 118.625 319.511719 143.144531 C 344.257812 167.890625 359.402344 201.710938 359.402344 239.128906 C 359.402344 276.695312 344.257812 310.585938 319.511719 335.109375 C 294.992188 359.851562 261.023438 375 223.53125 375 C 319.511719 356.179688 368.550781 232.078125 299.566406 163.167969 C 281.71875 145.320312 258.921875 135.199219 235.378906 132.5 C 239.578125 135.949219 243.851562 139.398438 247.601562 143.222656 C 266.570312 162.34375 279.992188 187.085938 285.167969 214.832031 L 256.222656 214.832031 C 251.648438 194.886719 241.527344 177.113281 227.730469 163.167969 C 216.40625 152.070312 202.835938 143.445312 187.6875 137.898438 C 172.992188 143.070312 159.191406 151.46875 147.496094 163.167969 C 128.148438 182.664062 116.078125 209.507812 116.078125 239.203125 C 116.078125 268.894531 128.148438 295.890625 147.496094 315.238281 C 158.816406 326.558594 172.464844 335.183594 187.539062 340.730469 C 202.910156 335.183594 216.480469 326.558594 227.730469 315.238281 C 241.527344 301.441406 251.648438 283.59375 256.222656 263.648438 L 285.167969 263.648438 C 279.992188 291.390625 266.570312 316.136719 247.601562 335.109375 C 243.550781 339.15625 239.578125 342.757812 235.152344 346.207031 L 235.679688 345.980469 C 221.65625 357.078125 205.382812 365.328125 187.761719 370.125 C 191.210938 371.101562 194.886719 372 198.484375 372.601562 C 194.8125 371.851562 190.988281 371.027344 187.386719 370.125 C 175.914062 373.199219 163.765625 374.925781 151.394531 374.925781 C 114.050781 374.925781 80.160156 359.777344 55.414062 335.03125 C 30.96875 310.363281 15.820312 276.46875 15.820312 238.976562 C 15.820312 201.632812 30.96875 167.742188 55.488281 142.996094 C 80.234375 118.476562 114.050781 103.328125 151.46875 103.328125 C 55.714844 121.925781 6.449219 246.25 75.433594 315.011719 C 92.457031 332.035156 114.878906 343.429688 139.996094 346.054688 C 135.574219 342.605469 131.523438 338.933594 127.550781 334.957031 C 103.03125 310.4375 87.882812 276.46875 87.882812 238.976562 C 87.882812 201.632812 103.03125 167.742188 127.550781 142.996094 C 131.597656 139.171875 135.574219 135.496094 139.996094 132.046875 L 139.472656 132.046875 C 147.945312 125.523438 157.09375 119.824219 167.066406 115.328125 C 148.621094 96.054688 137.296875 73.785156 136.171875 48.742188 C 134.824219 21.519531 154.542969 26.695312 157.617188 42.367188 C 169.316406 102.878906 191.136719 98.53125 233.128906 130.472656 L 233.351562 130.472656 L 233.351562 130.699219 L 233.578125 130.699219 L 233.804688 130.921875 L 234.027344 131.148438 L 234.253906 131.148438 L 234.253906 131.375 L 234.476562 131.375 L 234.703125 131.597656 L 234.929688 131.824219 L 235.226562 131.824219 L 235.226562 132.046875 L 235.453125 132.046875 L 235.679688 132.273438 C 227.054688 122.375 221.128906 112.777344 218.054688 103.554688 C 219.480469 103.480469 221.65625 103.480469 223.53125 103.480469 Z M 223.53125 103.480469 " fill-opacity="1" fill-rule="nonzero"/></svg>