<svg xmlns="http://www.w3.org/2000/svg" xmlns:xlink="http://www.w3.org/1999/xlink" width="500" zoomAndPan="magnify" viewBox="0 0 375 374.999991" height="500" preserveAspectRatio="xMidYMid meet" version="1.0"><defs><clipPath id="8d11e0e5be"><path d="M 157 97.46875 L 176 97.46875 L 176 127 L 157 127 Z M 157 97.46875 " clip-rule="nonzero"/></clipPath><clipPath id="cb3cf148aa"><path d="M 100 107 L 216 107 L 216 222.71875 L 100 222.71875 Z M 100 107 " clip-rule="nonzero"/></clipPath></defs><g clip-path="url(#8d11e0e5be)"><path fill="#60b404" d="M 157.78125 126.972656 C 170.105469 122.738281 177.625 110.339844 175.636719 97.46875 C 163.289062 101.699219 155.71875 114.097656 157.78125 126.972656 Z M 157.78125 126.972656 " fill-opacity="1" fill-rule="evenodd"/></g><g clip-path="url(#cb3cf148aa)"><path fill="#f13556" d="M 169.777344 132.03125 C 182.378906 132.03125 193.746094 137.089844 201.96875 145.277344 C 210.269531 153.542969 215.347656 164.839844 215.347656 177.335938 C 215.347656 189.882812 210.269531 201.203125 201.96875 209.394531 C 193.746094 217.660156 182.351562 222.71875 169.777344 222.71875 C 201.96875 216.433594 218.417969 174.980469 195.28125 151.964844 C 189.292969 146.003906 181.648438 142.625 173.75 141.722656 C 175.160156 142.875 176.59375 144.027344 177.851562 145.304688 C 184.214844 151.691406 188.714844 159.957031 190.449219 169.222656 L 180.742188 169.222656 C 179.207031 162.558594 175.8125 156.625 171.1875 151.964844 C 167.386719 148.257812 162.835938 145.378906 157.757812 143.527344 C 152.828125 145.253906 148.199219 148.058594 144.277344 151.964844 C 137.785156 158.476562 133.738281 167.445312 133.738281 177.363281 C 133.738281 187.28125 137.785156 196.296875 144.277344 202.757812 C 148.074219 206.539062 152.652344 209.417969 157.707031 211.273438 C 162.859375 209.417969 167.414062 206.539062 171.1875 202.757812 C 175.8125 198.148438 179.207031 192.1875 180.742188 185.527344 L 190.449219 185.527344 C 188.714844 194.792969 184.214844 203.058594 177.851562 209.394531 C 176.492188 210.746094 175.160156 211.949219 173.675781 213.101562 L 173.851562 213.027344 C 169.148438 216.730469 163.691406 219.488281 157.78125 221.089844 C 158.9375 221.414062 160.171875 221.714844 161.378906 221.917969 C 160.144531 221.667969 158.863281 221.390625 157.65625 221.089844 C 153.808594 222.117188 149.734375 222.691406 145.582031 222.691406 C 133.058594 222.691406 121.691406 217.632812 113.390625 209.367188 C 105.191406 201.128906 100.113281 189.808594 100.113281 177.285156 C 100.113281 164.8125 105.191406 153.492188 113.417969 145.230469 C 121.714844 137.039062 133.058594 131.980469 145.609375 131.980469 C 113.492188 138.191406 96.96875 179.714844 120.105469 202.683594 C 125.816406 208.367188 133.335938 212.175781 141.761719 213.050781 C 140.277344 211.898438 138.917969 210.671875 137.585938 209.34375 C 129.363281 201.15625 124.28125 189.808594 124.28125 177.285156 C 124.28125 164.8125 129.363281 153.492188 137.585938 145.230469 C 138.945312 143.953125 140.277344 142.722656 141.761719 141.574219 L 141.585938 141.574219 C 144.425781 139.394531 147.496094 137.488281 150.839844 135.988281 C 144.652344 129.550781 140.855469 122.113281 140.476562 113.746094 C 140.023438 104.65625 146.640625 106.382812 147.671875 111.617188 C 151.59375 131.828125 158.914062 130.378906 172.996094 141.046875 L 173.070312 141.046875 L 173.070312 141.121094 L 173.148438 141.121094 L 173.222656 141.195312 L 173.296875 141.273438 L 173.375 141.273438 L 173.375 141.347656 L 173.449219 141.347656 L 173.523438 141.421875 L 173.601562 141.496094 L 173.699219 141.496094 L 173.699219 141.574219 L 173.777344 141.574219 L 173.851562 141.648438 C 170.960938 138.339844 168.972656 135.136719 167.941406 132.054688 C 168.417969 132.03125 169.148438 132.03125 169.777344 132.03125 Z M 169.777344 132.03125 " fill-opacity="1" fill-rule="nonzero"/></g></svg>