<svg xmlns="http://www.w3.org/2000/svg" xmlns:xlink="http://www.w3.org/1999/xlink" width="500" zoomAndPan="magnify" viewBox="0 0 375 374.999991" height="500" preserveAspectRatio="xMidYMid meet" version="1.0"><defs><g/></defs><g fill="#474747" fill-opacity="1"><g transform="translate(162.12537, 226.399469)"><g><path d="M 53.5625 -95.6875 C 67.65625 -95.6875 79.222656 -90.976562 88.265625 -81.5625 C 97.117188 -72.414062 101.546875 -60.984375 101.546875 -47.265625 C 101.546875 -33.554688 97.117188 -22.132812 88.265625 -13 C 79.222656 -3.570312 67.65625 1.140625 53.5625 1.140625 C 39.46875 1.140625 27.898438 -3.570312 18.859375 -13 C 9.992188 -22.132812 5.5625 -33.554688 5.5625 -47.265625 C 5.5625 -60.984375 9.992188 -72.414062 18.859375 -81.5625 C 27.898438 -90.976562 39.46875 -95.6875 53.5625 -95.6875 Z M 53.5625 -9.28125 C 64.800781 -9.28125 73.894531 -12.945312 80.84375 -20.28125 C 87.507812 -27.320312 90.84375 -36.320312 90.84375 -47.28125 C 90.84375 -58.226562 87.507812 -67.222656 80.84375 -74.265625 C 73.894531 -81.597656 64.800781 -85.265625 53.5625 -85.265625 C 42.320312 -85.265625 33.226562 -81.597656 26.28125 -74.265625 C 19.613281 -67.222656 16.28125 -58.226562 16.28125 -47.28125 C 16.28125 -36.320312 19.613281 -27.320312 26.28125 -20.28125 C 33.226562 -12.945312 42.320312 -9.28125 53.5625 -9.28125 Z M 53.5625 -9.28125 "/></g></g></g><g fill="#474747" fill-opacity="1"><g transform="translate(255.658736, 226.399469)"><g><path d="M 51.421875 -94.546875 C 57.035156 -94.546875 62.460938 -93.472656 67.703125 -91.328125 C 72.941406 -89.191406 77.5625 -86.078125 81.5625 -81.984375 C 90.414062 -72.941406 94.84375 -61.375 94.84375 -47.28125 C 94.84375 -33.1875 90.414062 -21.613281 81.5625 -12.5625 C 77.5625 -8.46875 72.941406 -5.347656 67.703125 -3.203125 C 62.460938 -1.066406 57.035156 0 51.421875 0 L 11.5625 0 L 11.5625 -94.546875 Z M 50.984375 -10.140625 C 60.890625 -10.140625 68.9375 -13.804688 75.125 -21.140625 C 81.125 -28.179688 84.125 -36.894531 84.125 -47.28125 C 84.125 -57.65625 81.125 -66.363281 75.125 -73.40625 C 68.9375 -80.738281 60.890625 -84.40625 50.984375 -84.40625 L 22.28125 -84.40625 L 22.28125 -10.140625 Z M 50.984375 -10.140625 "/></g></g></g><g fill="#474747" fill-opacity="1"><g transform="translate(19.956645, 226.225709)"><g><path d="M 22.28125 -84.265625 L 22.28125 -51.421875 L 73.5625 -51.421875 L 73.5625 -40.984375 L 22.28125 -40.984375 L 22.28125 0 L 11.5625 0 L 11.5625 -94.546875 L 79.84375 -94.546875 L 79.84375 -84.265625 Z M 22.28125 -84.265625 "/></g></g></g><g fill="#8cc342" fill-opacity="0.4"><g transform="translate(27.047907, 264.016723)"><g><path d="M 16.828125 -2.90625 C 18.953125 -2.90625 20.8125 -3.441406 22.40625 -4.515625 C 24 -5.597656 25.1875 -7.046875 25.96875 -8.859375 L 29.5 -8.859375 C 28.507812 -6.054688 26.882812 -3.847656 24.625 -2.234375 C 22.207031 -0.503906 19.359375 0.359375 16.078125 0.359375 C 11.742188 0.359375 8.234375 -1.117188 5.546875 -4.078125 C 3.015625 -6.910156 1.75 -10.488281 1.75 -14.8125 C 1.75 -19.144531 3.015625 -22.726562 5.546875 -25.5625 C 8.234375 -28.519531 11.742188 -30 16.078125 -30 C 19.359375 -30 22.207031 -29.128906 24.625 -27.390625 C 26.882812 -25.785156 28.507812 -23.578125 29.5 -20.765625 L 25.96875 -20.765625 C 25.1875 -22.585938 24 -24.035156 22.40625 -25.109375 C 20.8125 -26.179688 18.953125 -26.71875 16.828125 -26.71875 C 14.710938 -26.71875 12.953125 -26.410156 11.546875 -25.796875 C 10.148438 -25.191406 8.972656 -24.351562 8.015625 -23.28125 C 6.078125 -21.101562 5.109375 -18.28125 5.109375 -14.8125 C 5.109375 -11.351562 6.078125 -8.535156 8.015625 -6.359375 C 10.046875 -4.054688 12.984375 -2.90625 16.828125 -2.90625 Z M 16.828125 -2.90625 "/></g></g></g><g fill="#8cc342" fill-opacity="0.4"><g transform="translate(57.931115, 264.016723)"><g><path d="M 12.625 -22.734375 C 15.96875 -22.734375 18.679688 -21.617188 20.765625 -19.390625 C 22.734375 -17.234375 23.71875 -14.5 23.71875 -11.1875 C 23.71875 -7.875 22.734375 -5.144531 20.765625 -3 C 18.679688 -0.757812 15.96875 0.359375 12.625 0.359375 C 9.28125 0.359375 6.566406 -0.757812 4.484375 -3 C 2.503906 -5.144531 1.515625 -7.875 1.515625 -11.1875 C 1.515625 -14.5 2.503906 -17.234375 4.484375 -19.390625 C 6.566406 -21.617188 9.28125 -22.734375 12.625 -22.734375 Z M 12.625 -2.6875 C 15.039062 -2.6875 16.953125 -3.519531 18.359375 -5.1875 C 19.703125 -6.769531 20.375 -8.769531 20.375 -11.1875 C 20.375 -13.601562 19.703125 -15.601562 18.359375 -17.1875 C 16.953125 -18.863281 15.039062 -19.703125 12.625 -19.703125 C 10.207031 -19.703125 8.296875 -18.863281 6.890625 -17.1875 C 5.546875 -15.601562 4.875 -13.601562 4.875 -11.1875 C 4.875 -8.769531 5.546875 -6.769531 6.890625 -5.1875 C 8.296875 -3.519531 10.207031 -2.6875 12.625 -2.6875 Z M 12.625 -2.6875 "/></g></g></g><g fill="#8cc342" fill-opacity="0.4"><g transform="translate(83.174794, 264.016723)"><g><path d="M 6.265625 -22.390625 L 6.265625 -18.890625 C 7.066406 -19.960938 8.050781 -20.867188 9.21875 -21.609375 C 10.382812 -22.359375 11.710938 -22.734375 13.203125 -22.734375 C 14.691406 -22.734375 15.972656 -22.523438 17.046875 -22.109375 C 18.128906 -21.691406 19.070312 -21.066406 19.875 -20.234375 C 21.726562 -18.410156 22.65625 -16.007812 22.65625 -13.03125 L 22.65625 0 L 19.296875 0 L 19.296875 -12.9375 C 19.296875 -15 18.710938 -16.640625 17.546875 -17.859375 C 16.378906 -19.085938 14.875 -19.703125 13.03125 -19.703125 C 11.144531 -19.703125 9.546875 -19.070312 8.234375 -17.8125 C 6.921875 -16.53125 6.265625 -14.890625 6.265625 -12.890625 L 6.265625 0 L 2.90625 0 L 2.90625 -22.390625 Z M 6.265625 -22.390625 "/></g></g></g><g fill="#8cc342" fill-opacity="0.4"><g transform="translate(108.507973, 264.016723)"><g><path d="M 6.265625 -22.390625 L 6.265625 -18.890625 C 7.066406 -19.960938 8.050781 -20.867188 9.21875 -21.609375 C 10.382812 -22.359375 11.710938 -22.734375 13.203125 -22.734375 C 14.691406 -22.734375 15.972656 -22.523438 17.046875 -22.109375 C 18.128906 -21.691406 19.070312 -21.066406 19.875 -20.234375 C 21.726562 -18.410156 22.65625 -16.007812 22.65625 -13.03125 L 22.65625 0 L 19.296875 0 L 19.296875 -12.9375 C 19.296875 -15 18.710938 -16.640625 17.546875 -17.859375 C 16.378906 -19.085938 14.875 -19.703125 13.03125 -19.703125 C 11.144531 -19.703125 9.546875 -19.070312 8.234375 -17.8125 C 6.921875 -16.53125 6.265625 -14.890625 6.265625 -12.890625 L 6.265625 0 L 2.90625 0 L 2.90625 -22.390625 Z M 6.265625 -22.390625 "/></g></g></g><g fill="#8cc342" fill-opacity="0.4"><g transform="translate(133.841152, 264.016723)"><g><path d="M 12.890625 -2.6875 C 15.898438 -2.6875 18.066406 -3.941406 19.390625 -6.453125 L 23.046875 -6.453125 C 22.273438 -4.421875 21.046875 -2.773438 19.359375 -1.515625 C 17.671875 -0.265625 15.5 0.359375 12.84375 0.359375 C 9.476562 0.359375 6.734375 -0.757812 4.609375 -3 C 2.546875 -5.175781 1.515625 -7.90625 1.515625 -11.1875 C 1.515625 -14.5 2.503906 -17.234375 4.484375 -19.390625 C 6.566406 -21.617188 9.28125 -22.734375 12.625 -22.734375 C 15.96875 -22.734375 18.679688 -21.617188 20.765625 -19.390625 C 22.734375 -17.234375 23.71875 -14.5 23.71875 -11.1875 L 23.71875 -9.84375 L 4.96875 -9.84375 C 5.207031 -7.789062 6.03125 -6.09375 7.4375 -4.75 C 8.863281 -3.375 10.679688 -2.6875 12.890625 -2.6875 Z M 12.625 -19.703125 C 10.5625 -19.703125 8.832031 -19.054688 7.4375 -17.765625 C 6.125 -16.546875 5.316406 -14.953125 5.015625 -12.984375 L 20.234375 -12.984375 C 19.929688 -14.953125 19.125 -16.546875 17.8125 -17.765625 C 16.414062 -19.054688 14.6875 -19.703125 12.625 -19.703125 Z M 12.625 -19.703125 "/></g></g></g><g fill="#8cc342" fill-opacity="0.4"><g transform="translate(158.771503, 264.016723)"><g><path d="M 13.25 -2.6875 C 14.6875 -2.6875 15.957031 -3.085938 17.0625 -3.890625 C 18.164062 -4.703125 18.96875 -5.75 19.46875 -7.03125 L 23.09375 -7.03125 C 22.40625 -4.820312 21.15625 -3.046875 19.34375 -1.703125 C 17.425781 -0.328125 15.15625 0.359375 12.53125 0.359375 C 9.25 0.359375 6.578125 -0.757812 4.515625 -3 C 2.515625 -5.175781 1.515625 -7.90625 1.515625 -11.1875 C 1.515625 -14.46875 2.515625 -17.203125 4.515625 -19.390625 C 6.578125 -21.617188 9.25 -22.734375 12.53125 -22.734375 C 15.15625 -22.734375 17.425781 -22.050781 19.34375 -20.6875 C 21.15625 -19.34375 22.40625 -17.566406 23.09375 -15.359375 L 19.46875 -15.359375 C 18.96875 -16.640625 18.164062 -17.679688 17.0625 -18.484375 C 15.957031 -19.296875 14.6875 -19.703125 13.25 -19.703125 C 11.820312 -19.703125 10.609375 -19.476562 9.609375 -19.03125 C 8.609375 -18.582031 7.765625 -17.96875 7.078125 -17.1875 C 5.609375 -15.570312 4.875 -13.570312 4.875 -11.1875 C 4.875 -8.800781 5.609375 -6.800781 7.078125 -5.1875 C 8.566406 -3.519531 10.625 -2.6875 13.25 -2.6875 Z M 13.25 -2.6875 "/></g></g></g><g fill="#8cc342" fill-opacity="0.4"><g transform="translate(183.120026, 264.016723)"><g><path d="M 5.328125 0 L 5.328125 -19.421875 L 0.765625 -19.421875 L 0.765625 -22.390625 L 5.328125 -22.390625 L 5.328125 -30.390625 L 8.6875 -30.390625 L 8.6875 -22.390625 L 13.828125 -22.390625 L 13.828125 -19.421875 L 8.6875 -19.421875 L 8.6875 0 Z M 5.328125 0 "/></g></g></g><g fill="#60b404" fill-opacity="1"><g transform="translate(27.047907, 264.016723)"><g><path d="M 16.828125 -2.90625 C 18.953125 -2.90625 20.8125 -3.441406 22.40625 -4.515625 C 24 -5.597656 25.1875 -7.046875 25.96875 -8.859375 L 29.5 -8.859375 C 28.507812 -6.054688 26.882812 -3.847656 24.625 -2.234375 C 22.207031 -0.503906 19.359375 0.359375 16.078125 0.359375 C 11.742188 0.359375 8.234375 -1.117188 5.546875 -4.078125 C 3.015625 -6.910156 1.75 -10.488281 1.75 -14.8125 C 1.75 -19.144531 3.015625 -22.726562 5.546875 -25.5625 C 8.234375 -28.519531 11.742188 -30 16.078125 -30 C 19.359375 -30 22.207031 -29.128906 24.625 -27.390625 C 26.882812 -25.785156 28.507812 -23.578125 29.5 -20.765625 L 25.96875 -20.765625 C 25.1875 -22.585938 24 -24.035156 22.40625 -25.109375 C 20.8125 -26.179688 18.953125 -26.71875 16.828125 -26.71875 C 14.710938 -26.71875 12.953125 -26.410156 11.546875 -25.796875 C 10.148438 -25.191406 8.972656 -24.351562 8.015625 -23.28125 C 6.078125 -21.101562 5.109375 -18.28125 5.109375 -14.8125 C 5.109375 -11.351562 6.078125 -8.535156 8.015625 -6.359375 C 10.046875 -4.054688 12.984375 -2.90625 16.828125 -2.90625 Z M 16.828125 -2.90625 "/></g></g></g><g fill="#60b404" fill-opacity="1"><g transform="translate(57.931115, 264.016723)"><g><path d="M 12.625 -22.734375 C 15.96875 -22.734375 18.679688 -21.617188 20.765625 -19.390625 C 22.734375 -17.234375 23.71875 -14.5 23.71875 -11.1875 C 23.71875 -7.875 22.734375 -5.144531 20.765625 -3 C 18.679688 -0.757812 15.96875 0.359375 12.625 0.359375 C 9.28125 0.359375 6.566406 -0.757812 4.484375 -3 C 2.503906 -5.144531 1.515625 -7.875 1.515625 -11.1875 C 1.515625 -14.5 2.503906 -17.234375 4.484375 -19.390625 C 6.566406 -21.617188 9.28125 -22.734375 12.625 -22.734375 Z M 12.625 -2.6875 C 15.039062 -2.6875 16.953125 -3.519531 18.359375 -5.1875 C 19.703125 -6.769531 20.375 -8.769531 20.375 -11.1875 C 20.375 -13.601562 19.703125 -15.601562 18.359375 -17.1875 C 16.953125 -18.863281 15.039062 -19.703125 12.625 -19.703125 C 10.207031 -19.703125 8.296875 -18.863281 6.890625 -17.1875 C 5.546875 -15.601562 4.875 -13.601562 4.875 -11.1875 C 4.875 -8.769531 5.546875 -6.769531 6.890625 -5.1875 C 8.296875 -3.519531 10.207031 -2.6875 12.625 -2.6875 Z M 12.625 -2.6875 "/></g></g></g><g fill="#60b404" fill-opacity="1"><g transform="translate(83.174794, 264.016723)"><g><path d="M 6.265625 -22.390625 L 6.265625 -18.890625 C 7.066406 -19.960938 8.050781 -20.867188 9.21875 -21.609375 C 10.382812 -22.359375 11.710938 -22.734375 13.203125 -22.734375 C 14.691406 -22.734375 15.972656 -22.523438 17.046875 -22.109375 C 18.128906 -21.691406 19.070312 -21.066406 19.875 -20.234375 C 21.726562 -18.410156 22.65625 -16.007812 22.65625 -13.03125 L 22.65625 0 L 19.296875 0 L 19.296875 -12.9375 C 19.296875 -15 18.710938 -16.640625 17.546875 -17.859375 C 16.378906 -19.085938 14.875 -19.703125 13.03125 -19.703125 C 11.144531 -19.703125 9.546875 -19.070312 8.234375 -17.8125 C 6.921875 -16.53125 6.265625 -14.890625 6.265625 -12.890625 L 6.265625 0 L 2.90625 0 L 2.90625 -22.390625 Z M 6.265625 -22.390625 "/></g></g></g><g fill="#60b404" fill-opacity="1"><g transform="translate(108.507973, 264.016723)"><g><path d="M 6.265625 -22.390625 L 6.265625 -18.890625 C 7.066406 -19.960938 8.050781 -20.867188 9.21875 -21.609375 C 10.382812 -22.359375 11.710938 -22.734375 13.203125 -22.734375 C 14.691406 -22.734375 15.972656 -22.523438 17.046875 -22.109375 C 18.128906 -21.691406 19.070312 -21.066406 19.875 -20.234375 C 21.726562 -18.410156 22.65625 -16.007812 22.65625 -13.03125 L 22.65625 0 L 19.296875 0 L 19.296875 -12.9375 C 19.296875 -15 18.710938 -16.640625 17.546875 -17.859375 C 16.378906 -19.085938 14.875 -19.703125 13.03125 -19.703125 C 11.144531 -19.703125 9.546875 -19.070312 8.234375 -17.8125 C 6.921875 -16.53125 6.265625 -14.890625 6.265625 -12.890625 L 6.265625 0 L 2.90625 0 L 2.90625 -22.390625 Z M 6.265625 -22.390625 "/></g></g></g><g fill="#60b404" fill-opacity="1"><g transform="translate(133.841152, 264.016723)"><g><path d="M 12.890625 -2.6875 C 15.898438 -2.6875 18.066406 -3.941406 19.390625 -6.453125 L 23.046875 -6.453125 C 22.273438 -4.421875 21.046875 -2.773438 19.359375 -1.515625 C 17.671875 -0.265625 15.5 0.359375 12.84375 0.359375 C 9.476562 0.359375 6.734375 -0.757812 4.609375 -3 C 2.546875 -5.175781 1.515625 -7.90625 1.515625 -11.1875 C 1.515625 -14.5 2.503906 -17.234375 4.484375 -19.390625 C 6.566406 -21.617188 9.28125 -22.734375 12.625 -22.734375 C 15.96875 -22.734375 18.679688 -21.617188 20.765625 -19.390625 C 22.734375 -17.234375 23.71875 -14.5 23.71875 -11.1875 L 23.71875 -9.84375 L 4.96875 -9.84375 C 5.207031 -7.789062 6.03125 -6.09375 7.4375 -4.75 C 8.863281 -3.375 10.679688 -2.6875 12.890625 -2.6875 Z M 12.625 -19.703125 C 10.5625 -19.703125 8.832031 -19.054688 7.4375 -17.765625 C 6.125 -16.546875 5.316406 -14.953125 5.015625 -12.984375 L 20.234375 -12.984375 C 19.929688 -14.953125 19.125 -16.546875 17.8125 -17.765625 C 16.414062 -19.054688 14.6875 -19.703125 12.625 -19.703125 Z M 12.625 -19.703125 "/></g></g></g><g fill="#60b404" fill-opacity="1"><g transform="translate(158.771503, 264.016723)"><g><path d="M 13.25 -2.6875 C 14.6875 -2.6875 15.957031 -3.085938 17.0625 -3.890625 C 18.164062 -4.703125 18.96875 -5.75 19.46875 -7.03125 L 23.09375 -7.03125 C 22.40625 -4.820312 21.15625 -3.046875 19.34375 -1.703125 C 17.425781 -0.328125 15.15625 0.359375 12.53125 0.359375 C 9.25 0.359375 6.578125 -0.757812 4.515625 -3 C 2.515625 -5.175781 1.515625 -7.90625 1.515625 -11.1875 C 1.515625 -14.46875 2.515625 -17.203125 4.515625 -19.390625 C 6.578125 -21.617188 9.25 -22.734375 12.53125 -22.734375 C 15.15625 -22.734375 17.425781 -22.050781 19.34375 -20.6875 C 21.15625 -19.34375 22.40625 -17.566406 23.09375 -15.359375 L 19.46875 -15.359375 C 18.96875 -16.640625 18.164062 -17.679688 17.0625 -18.484375 C 15.957031 -19.296875 14.6875 -19.703125 13.25 -19.703125 C 11.820312 -19.703125 10.609375 -19.476562 9.609375 -19.03125 C 8.609375 -18.582031 7.765625 -17.96875 7.078125 -17.1875 C 5.609375 -15.570312 4.875 -13.570312 4.875 -11.1875 C 4.875 -8.800781 5.609375 -6.800781 7.078125 -5.1875 C 8.566406 -3.519531 10.625 -2.6875 13.25 -2.6875 Z M 13.25 -2.6875 "/></g></g></g><g fill="#60b404" fill-opacity="1"><g transform="translate(183.120026, 264.016723)"><g><path d="M 5.328125 0 L 5.328125 -19.421875 L 0.765625 -19.421875 L 0.765625 -22.390625 L 5.328125 -22.390625 L 5.328125 -30.390625 L 8.6875 -30.390625 L 8.6875 -22.390625 L 13.828125 -22.390625 L 13.828125 -19.421875 L 8.6875 -19.421875 L 8.6875 0 Z M 5.328125 0 "/></g></g></g></svg>